<?xml version="1.0" standalone="no"?>
<!DOCTYPE svg PUBLIC "-//W3C//DTD SVG 20010904//EN"
 "http://www.w3.org/TR/2001/REC-SVG-20010904/DTD/svg10.dtd">
<svg version="1.0" xmlns="http://www.w3.org/2000/svg"
 width="1389.000000pt" height="604.000000pt" viewBox="0 0 1389.000000 604.000000"
 preserveAspectRatio="xMidYMid meet">

<g transform="translate(0.000000,604.000000) scale(0.100000,-0.100000)"
fill="#000000" stroke="none">
<path d="M8263 3698 c-5 -7 -21 -46 -36 -86 -26 -72 -26 -73 -7 -92 20 -20 20
-19 34 3 15 24 31 73 40 126 5 30 4 32 -11 20 -15 -13 -16 -11 -9 14 7 29 4
34 -11 15z"/>
<path d="M4677 3418 c-4 -149 -7 -344 -7 -432 0 -89 -5 -253 -12 -365 -10
-186 -13 -204 -30 -209 -13 -3 -17 -10 -13 -21 20 -51 27 -129 23 -242 -5
-147 -23 -194 -71 -194 -32 1 -35 -15 -8 -39 14 -13 28 -16 54 -11 26 5 36 3
40 -9 4 -10 18 -16 36 -16 24 0 32 5 37 25 4 18 13 25 29 25 41 0 46 46 11 93
-40 54 -49 99 -44 226 3 85 9 125 22 149 20 38 16 48 -12 33 -18 -10 -19 -3
-25 222 -4 128 -7 413 -7 635 0 221 -4 402 -8 402 -5 0 -12 -122 -15 -272z"/>
<path d="M5795 3400 c-3 -5 -17 -10 -31 -10 -36 0 -92 -26 -140 -65 -42 -35
-144 -178 -144 -203 0 -7 -13 -39 -30 -72 -24 -48 -31 -75 -34 -147 -3 -58 -3
-72 2 -41 8 47 21 74 23 47 1 -8 2 -40 3 -71 1 -71 21 -98 61 -80 14 6 25 16
25 22 0 7 -6 8 -19 0 -29 -15 -40 -12 -36 10 2 11 -1 20 -7 20 -6 0 -7 7 -3
18 4 9 10 37 12 62 3 25 13 64 24 87 10 23 20 52 22 64 1 12 12 33 25 47 12
14 22 30 22 36 0 6 -10 0 -21 -14 l-20 -25 7 25 c3 14 16 41 28 60 25 41 29
71 9 63 -22 -9 -5 20 29 46 17 13 36 24 44 24 7 0 11 3 9 7 -8 12 55 41 107
49 54 9 84 -1 117 -38 11 -14 12 -13 6 9 -7 25 -58 80 -75 80 -5 0 -12 -4 -15
-10z"/>
<path d="M8140 3268 c-12 -21 -16 -36 -10 -43 6 -7 4 -37 -5 -81 -8 -38 -17
-103 -21 -144 -7 -91 -7 -71 -5 -156 1 -65 4 -74 34 -107 32 -36 77 -58 77
-38 0 6 -3 10 -7 10 -21 -3 -33 3 -43 22 -10 18 -9 19 7 11 27 -14 100 -7 139
14 19 10 34 22 34 26 0 10 -30 5 -50 -7 -8 -6 -29 -15 -46 -21 -27 -9 -33 -8
-45 10 -8 12 -17 35 -21 51 -3 17 -13 47 -21 68 -9 25 -12 52 -7 76 4 25 2 41
-6 49 -10 9 -14 9 -17 -1 -3 -7 -6 -3 -6 9 -1 11 2 24 6 28 4 3 8 12 9 19 1 7
9 42 18 79 8 37 13 75 9 84 -4 12 -3 15 5 10 9 -5 10 -1 3 16 -4 13 -6 29 -4
36 9 23 -7 12 -27 -20z"/>
<path d="M6657 3259 c-25 -20 -36 -37 -32 -47 3 -8 -4 -26 -17 -40 -20 -21
-20 -23 -3 -12 11 7 33 30 48 52 20 29 34 38 50 36 15 -2 22 -10 22 -24 0 -25
23 -56 36 -48 12 7 9 86 -4 102 -17 21 -61 13 -100 -19z"/>
<path d="M7460 3253 c-50 -45 -65 -69 -46 -76 8 -3 13 1 12 11 0 9 5 16 12 14
8 -1 23 9 34 23 28 36 58 33 58 -5 0 -28 33 -61 43 -43 6 12 1 89 -7 102 -15
24 -65 12 -106 -26z"/>
<path d="M8980 3272 c-42 -14 -148 -107 -136 -120 3 -2 12 1 21 8 13 11 15 10
10 -6 -4 -10 1 -7 9 7 17 29 85 69 116 69 13 0 22 9 26 25 4 14 5 27 3 29 -2
2 -24 -4 -49 -12z"/>
<path d="M9470 3258 c-19 -12 -37 -23 -39 -25 -3 -2 0 -8 5 -13 7 -7 26 -5 57
7 39 14 44 19 36 35 -12 23 -16 22 -59 -4z"/>
<path d="M5876 3251 c-9 -10 -21 -33 -26 -51 -13 -47 -91 -180 -102 -174 -4 3
-8 1 -8 -4 0 -5 9 -12 19 -15 13 -3 18 0 15 8 -3 7 0 16 7 21 8 4 10 3 5 -4
-4 -7 -5 -12 -2 -12 3 0 13 14 21 31 21 39 27 33 15 -12 -25 -94 -40 -242 -28
-286 10 -38 70 -93 101 -92 18 0 17 3 -10 15 -18 8 -33 19 -33 25 0 7 7 8 18
3 49 -21 182 -1 182 28 0 10 -47 3 -63 -10 -18 -14 -69 -9 -95 9 -30 22 -41
76 -27 144 l6 30 -16 -30 -15 -30 4 45 c3 25 8 54 12 65 6 14 4 16 -6 10 -10
-6 -12 -4 -6 10 5 15 4 16 -9 5 -20 -17 -19 -1 3 49 10 22 22 38 26 34 4 -4 4
-1 1 8 -8 20 21 98 46 125 14 15 19 29 15 42 -9 28 -31 34 -50 13z"/>
<path d="M9276 3233 c-2 -3 -28 -6 -58 -8 -108 -6 -105 -5 -83 -15 l20 -8 -20
-7 c-11 -4 -26 -9 -32 -11 -7 -2 -10 -10 -7 -19 5 -13 1 -15 -17 -11 -80 17
-99 17 -99 1 0 -8 -5 -15 -11 -15 -8 0 -8 -5 1 -15 9 -11 16 -12 26 -4 21 17
37 -27 42 -118 4 -69 1 -93 -18 -143 -19 -52 -29 -64 -73 -91 -40 -24 -59 -30
-92 -27 -31 2 -41 0 -38 -9 3 -7 21 -13 40 -13 20 0 32 -4 28 -10 -10 -17 -55
-11 -87 11 -38 28 -57 72 -59 141 0 15 -4 30 -9 33 -14 9 -17 -42 -5 -79 7
-19 10 -38 7 -40 -3 -3 1 -12 7 -20 7 -8 10 -19 7 -24 -3 -6 2 -9 12 -8 9 0
16 -4 15 -11 -2 -6 6 -15 17 -18 11 -4 20 -11 20 -16 0 -5 25 -9 55 -9 30 0
55 3 55 8 0 4 12 8 26 9 32 1 75 32 89 61 5 12 14 22 20 22 13 0 49 59 41 67
-3 3 -9 -3 -13 -13 -4 -10 -13 -26 -21 -34 -16 -16 -15 -8 16 82 14 40 14 49
3 60 -11 11 -12 10 -6 -2 8 -13 6 -13 -7 -2 -18 14 -13 46 5 35 6 -3 7 -1 3 6
-4 6 -9 31 -11 54 -1 23 -6 56 -10 73 l-7 31 59 11 c32 6 77 14 101 17 23 4
42 11 42 16 0 6 -6 9 -14 7 -8 -2 -15 2 -16 7 -1 6 22 17 52 27 29 9 51 17 48
18 -17 6 -39 7 -44 3z"/>
<path d="M9387 3223 c4 -11 8 -13 11 -5 2 7 8 10 13 6 5 -3 9 0 9 5 0 6 -9 11
-20 11 -14 0 -18 -5 -13 -17z"/>
<path d="M6600 3200 c-8 -5 -11 -12 -7 -16 4 -4 13 -2 19 4 15 15 7 24 -12 12z"/>
<path d="M7233 3179 c-24 -12 -41 -25 -38 -29 6 -10 -60 -77 -115 -118 -19
-15 -57 -48 -85 -73 -160 -150 -356 -279 -423 -279 -13 0 -21 -4 -17 -9 3 -6
13 -8 23 -6 9 3 34 9 54 14 43 10 42 -1 -3 -23 -40 -20 -124 -12 -153 15 -29
27 -44 87 -41 160 2 57 1 59 -10 32 -18 -43 -16 -132 4 -155 9 -10 16 -23 16
-28 0 -12 66 -70 79 -70 6 0 4 5 -4 11 -11 8 -4 9 25 3 22 -4 49 -7 61 -7 24
1 96 32 105 46 3 5 8 8 10 6 9 -5 82 36 110 62 17 16 36 29 41 29 14 0 70 41
64 47 -3 3 -19 -5 -35 -17 -17 -12 -31 -18 -31 -13 0 11 36 43 87 79 24 16 41
35 38 42 -2 6 1 12 7 12 7 0 3 7 -8 15 -10 8 -16 15 -11 16 4 1 10 2 15 3 16
3 72 41 72 49 0 5 7 7 14 4 9 -4 17 1 21 12 3 10 32 40 65 66 56 45 76 66 48
49 -7 -4 6 11 30 34 48 47 45 51 -15 21z"/>
<path d="M8043 3181 c-22 -11 -44 -28 -47 -39 -4 -10 -52 -59 -109 -108 -56
-49 -109 -96 -117 -104 -59 -56 -147 -125 -200 -157 -34 -21 -76 -47 -92 -57
-17 -11 -54 -25 -82 -32 -40 -10 -45 -12 -21 -13 17 -1 46 3 64 9 47 13 49 7
8 -19 -29 -18 -44 -20 -88 -15 -88 10 -126 65 -119 174 1 28 -1 32 -11 23 -17
-17 -14 -99 5 -128 9 -13 16 -30 16 -38 0 -7 11 -20 25 -27 14 -7 25 -17 25
-21 0 -5 6 -6 14 -3 8 3 31 1 51 -5 44 -12 135 13 157 44 4 5 8 7 8 3 0 -8 31
8 87 46 24 16 40 32 37 37 -3 5 2 9 12 9 19 0 87 40 80 47 -2 2 -19 -3 -38
-12 -31 -15 -31 -14 12 25 42 38 69 52 55 30 -3 -5 -1 -10 5 -10 7 0 9 7 6 17
-4 9 -1 20 5 24 19 11 20 39 2 32 -13 -5 -13 -2 -4 14 6 12 22 24 36 27 14 4
25 11 25 16 0 6 7 10 15 10 8 0 15 5 15 10 0 5 3 9 8 8 4 -1 25 16 47 38 22
22 56 52 75 68 19 15 28 24 20 20 -8 -5 -4 6 10 23 14 17 34 36 45 41 35 19 1
12 -42 -7z"/>
<path d="M9268 3183 c7 -3 16 -2 19 1 4 3 -2 6 -13 5 -11 0 -14 -3 -6 -6z"/>
<path d="M6535 3130 c-30 -48 -32 -65 -7 -49 10 7 25 26 32 43 7 17 15 34 18
39 2 4 -1 7 -7 7 -6 0 -22 -18 -36 -40z"/>
<path d="M7342 3126 c-18 -27 -30 -51 -28 -53 7 -8 32 9 50 34 12 16 14 23 5
18 -12 -8 -12 -6 -1 8 8 9 12 22 9 29 -2 7 -18 -9 -35 -36z"/>
<path d="M8795 3110 c-18 -34 -18 -40 -5 -40 8 0 40 51 40 65 0 16 -22 1 -35
-25z"/>
<path d="M8700 3091 c0 -4 -12 -21 -27 -38 -27 -28 -73 -82 -101 -115 -10 -13
-10 -17 2 -21 11 -4 13 -1 9 10 -4 11 -3 14 6 9 7 -5 23 2 39 18 15 15 46 44
70 66 33 30 42 45 37 60 -6 19 -35 29 -35 11z"/>
<path d="M6369 3008 c-24 -34 -58 -77 -76 -95 -17 -18 -27 -35 -23 -38 5 -3
11 -1 15 4 3 6 12 8 20 4 8 -3 15 -1 15 3 0 5 27 38 60 74 63 67 69 80 46 99
-10 9 -22 -2 -57 -51z"/>
<path d="M6506 3015 c-9 -26 -7 -32 5 -12 6 10 9 21 6 23 -2 3 -7 -2 -11 -11z"/>
<path d="M5691 2963 c-33 -40 -27 -55 11 -29 12 9 19 16 14 16 -5 0 -1 9 8 19
10 11 13 21 7 25 -5 3 -23 -11 -40 -31z"/>
<path d="M5861 2924 c0 -11 3 -14 6 -6 3 7 2 16 -1 19 -3 4 -6 -2 -5 -13z"/>
<path d="M8170 2930 c-1 -3 -4 -16 -6 -30 -3 -18 -2 -22 7 -13 6 6 9 19 6 29
-3 11 -6 17 -7 14z"/>
<path d="M8495 2895 c-26 -21 -27 -24 -10 -24 11 -1 31 11 44 24 31 33 6 33
-34 0z"/>
<path d="M5630 2890 c-9 -6 -10 -10 -3 -10 6 0 15 5 18 10 8 12 4 12 -15 0z"/>
<path d="M5649 2863 c-13 -16 -12 -17 4 -4 16 13 21 21 13 21 -2 0 -10 -8 -17
-17z"/>
<path d="M6213 2851 c-13 -11 -23 -22 -23 -25 0 -13 28 -5 43 12 32 35 17 43
-20 13z"/>
<path d="M8761 2854 c0 -11 3 -14 6 -6 3 7 2 16 -1 19 -3 4 -6 -2 -5 -13z"/>
<path d="M6461 2844 c0 -11 3 -14 6 -6 3 7 2 16 -1 19 -3 4 -6 -2 -5 -13z"/>
<path d="M6450 2785 c0 -14 2 -25 4 -25 2 0 6 11 8 25 3 14 1 25 -3 25 -5 0
-9 -11 -9 -25z"/>
<path d="M7262 2785 c0 -16 2 -22 5 -12 2 9 2 23 0 30 -3 6 -5 -1 -5 -18z"/>
<path d="M8772 2790 c0 -14 2 -19 5 -12 2 6 2 18 0 25 -3 6 -5 1 -5 -13z"/>
<path d="M5420 2766 c0 -2 7 -9 15 -16 13 -11 14 -10 9 4 -5 14 -24 23 -24 12z"/>
<path d="M6455 2740 c-3 -5 -1 -10 4 -10 6 0 11 5 11 10 0 6 -2 10 -4 10 -3 0
-8 -4 -11 -10z"/>
<path d="M8309 2733 c-13 -15 -12 -15 9 -4 23 12 28 21 13 21 -5 0 -15 -7 -22
-17z"/>
<path d="M5460 2728 c0 -5 14 -8 30 -8 17 0 30 3 30 8 0 4 -13 7 -30 7 -16 0
-30 -3 -30 -7z"/>
<path d="M6470 2712 c0 -5 7 -15 15 -22 8 -7 15 -8 15 -2 0 5 -7 15 -15 22 -8
7 -15 8 -15 2z"/>
<path d="M7280 2699 c7 -11 14 -19 16 -16 7 7 -7 37 -17 37 -6 0 -5 -9 1 -21z"/>
<path d="M8258 2713 c7 -3 16 -2 19 1 4 3 -2 6 -13 5 -11 0 -14 -3 -6 -6z"/>
<path d="M6015 2686 c-18 -13 -18 -14 8 -9 15 3 24 9 21 14 -7 12 -7 12 -29
-5z"/>
<path d="M5950 2672 c0 -5 7 -9 15 -9 8 0 15 4 15 9 0 4 -7 8 -15 8 -8 0 -15
-4 -15 -8z"/>
<path d="M5580 2360 c0 -5 7 -10 15 -10 12 0 15 -13 15 -61 0 -55 -2 -60 -17
-53 -10 4 -39 9 -64 12 -41 3 -51 0 -80 -26 -31 -27 -34 -35 -37 -101 -4 -70
-4 -71 31 -106 28 -28 43 -35 75 -35 25 0 49 8 66 21 20 16 26 17 26 6 0 -9
12 -17 30 -19 17 -3 30 -1 30 4 0 4 -7 8 -15 8 -13 0 -15 27 -15 185 l0 185
-30 0 c-16 0 -30 -4 -30 -10z m9 -146 c21 -15 23 -22 19 -96 -3 -69 -6 -82
-27 -99 -26 -21 -59 -24 -94 -8 -33 15 -47 49 -47 110 0 42 5 55 29 80 34 34
83 39 120 13z"/>
<path d="M7585 2360 c-3 -5 3 -10 14 -10 20 0 21 -5 21 -170 0 -142 -2 -172
-15 -176 -28 -11 -4 -23 37 -19 44 5 65 15 30 15 -22 0 -22 2 -22 185 l0 185
-29 0 c-17 0 -33 -4 -36 -10z"/>
<path d="M7755 2360 c-3 -5 3 -10 14 -10 20 0 21 -5 21 -169 0 -167 0 -170
-22 -177 l-23 -7 24 -8 c27 -11 81 -8 81 3 0 4 -7 8 -15 8 -13 0 -15 27 -15
185 l0 185 -29 0 c-17 0 -33 -4 -36 -10z"/>
<path d="M5763 2324 c-6 -16 15 -37 29 -28 4 3 8 14 8 25 0 23 -28 26 -37 3z"/>
<path d="M5735 2240 c-3 -5 3 -10 14 -10 20 0 21 -6 21 -110 0 -105 -1 -111
-22 -120 -25 -9 -19 -11 45 -14 20 -1 37 2 37 6 0 4 -7 8 -15 8 -13 0 -15 21
-15 125 l0 125 -29 0 c-17 0 -33 -4 -36 -10z"/>
<path d="M5939 2239 c-28 -10 -45 -47 -30 -62 5 -5 11 3 15 16 6 25 30 37 77
37 35 0 58 -19 65 -56 6 -31 6 -31 -47 -38 -114 -15 -161 -75 -104 -131 30
-31 77 -33 123 -5 30 18 32 19 32 2 0 -12 7 -18 24 -17 27 0 49 15 23 15 -15
0 -17 12 -17 84 0 90 -10 131 -38 152 -20 15 -85 17 -123 3z m131 -150 c0 -39
-48 -89 -84 -89 -27 0 -66 31 -66 53 0 35 54 64 123 66 24 1 27 -3 27 -30z"/>
<path d="M6238 2232 c-56 -34 -74 -124 -40 -192 30 -60 105 -79 156 -39 l26
20 0 -49 c0 -86 -57 -109 -165 -66 -18 7 -18 6 -7 -9 36 -44 135 -45 178 -2
23 23 24 29 24 175 l0 151 -35 15 c-46 19 -104 17 -137 -4z m123 -12 c16 -9
19 -22 19 -95 0 -78 -2 -85 -26 -104 -46 -36 -102 -24 -129 29 -29 55 -12 144
32 169 23 14 79 14 104 1z"/>
<path d="M6532 2234 c-51 -36 -68 -127 -34 -194 29 -58 100 -77 163 -44 75 38
78 189 6 237 -33 21 -105 22 -135 1z m115 -19 c49 -34 53 -146 7 -192 -58 -58
-144 -3 -144 92 0 91 74 144 137 100z"/>
<path d="M6786 2242 c-3 -5 2 -12 12 -14 15 -4 18 -15 16 -59 -1 -30 -2 -80
-3 -111 -1 -47 -4 -58 -18 -58 -9 0 -13 -3 -9 -7 11 -11 96 -12 96 -2 0 5 -7
9 -15 9 -12 0 -15 17 -15 93 0 106 9 123 73 134 27 4 39 1 56 -16 18 -18 21
-33 21 -116 0 -82 -2 -95 -17 -95 -9 0 -14 -3 -11 -6 10 -10 88 -13 94 -3 3 5
-4 9 -14 9 -19 0 -20 8 -24 106 -3 97 -5 107 -27 125 -31 25 -85 24 -128 -2
-33 -20 -34 -20 -31 -3 2 14 -4 20 -24 22 -14 2 -29 -1 -32 -6z"/>
<path d="M7328 2238 c-23 -8 -28 -16 -28 -41 1 -29 2 -30 12 -12 17 32 39 45
75 45 39 0 73 -30 73 -64 0 -21 -6 -25 -47 -31 -101 -15 -145 -53 -123 -109
18 -48 82 -60 137 -26 28 17 32 17 35 3 3 -16 58 -26 58 -11 0 4 -6 8 -14 8
-11 0 -15 23 -18 106 -3 97 -5 107 -27 125 -26 21 -87 24 -133 7z m132 -151
c0 -59 -64 -102 -116 -78 -28 12 -33 61 -9 81 16 13 65 27 103 29 19 1 22 -4
22 -32z"/>
<path d="M7960 2223 c-56 -50 -59 -158 -7 -211 33 -32 101 -41 146 -17 42 21
33 31 -13 15 -65 -21 -130 12 -138 70 l-3 25 98 3 97 3 0 40 c0 90 -111 134
-180 72z m128 -13 c13 -12 22 -33 22 -50 l0 -30 -80 0 c-77 0 -80 1 -80 24 0
13 12 35 26 50 33 32 81 35 112 6z"/>
<path d="M8190 2240 c0 -5 6 -10 13 -10 6 0 34 -55 60 -123 40 -101 47 -127
38 -148 -12 -32 -57 -69 -83 -69 -11 0 -16 -4 -13 -10 10 -16 51 -11 77 10 18
14 43 65 84 176 41 108 64 158 77 162 9 2 17 8 17 13 0 12 -87 11 -95 -1 -3
-5 3 -10 14 -10 12 0 21 -3 21 -7 0 -11 -62 -177 -70 -186 -5 -6 -24 37 -77
181 -3 6 2 12 10 12 9 0 19 5 22 10 4 6 -13 10 -44 10 -28 0 -51 -4 -51 -10z"/>
</g>
</svg>
